<svg xmlns="http://www.w3.org/2000/svg" xmlns:xlink="http://www.w3.org/1999/xlink" version="1.1" width="375pt" height="375pt" viewBox="0 0 375 375">
<defs>
<clipPath id="clip_0">
<path transform="matrix(.24,0,0,.24,0,0)" d="M0 0H1562.5V1593.75H0Z" fill-rule="evenodd"/>
</clipPath>
<clipPath id="clip_1">
<path transform="matrix(.24,0,0,.24,0,0)" d="M0 0H1562.5V1562.5H0Z" fill-rule="evenodd"/>
</clipPath>
<clipPath id="clip_2">
<path transform="matrix(.24,0,0,.24,0,0)" d="M0 0H1562.5V1562.5H0Z" fill-rule="evenodd"/>
</clipPath>
<clipPath id="clip_3">
<path transform="matrix(.24,0,0,.24,0,0)" d="M194.94879 .00000000000010668064H1366.0381V1171.0894H194.94879Z" fill-rule="evenodd"/>
</clipPath>
<clipPath id="clip_4">
<path transform="matrix(.24,0,0,.24,0,0)" d="M92.38245 184.7649H1469.9138V1295.7984H92.38245Z" fill-rule="evenodd"/>
</clipPath>
<clipPath id="clip_5">
<path transform="matrix(.24,0,0,.24,0,0)" d="M412.14225 598.0854H1151.5801V1562.5H412.14225Z" fill-rule="evenodd"/>
</clipPath>
<clipPath id="clip_6">
<path transform="matrix(.24,0,0,.24,0,0)" d="M412.14225 598.0854H1151.5801V1562.5H412.14225Z" fill-rule="evenodd"/>
</clipPath>
<clipPath id="clip_7">
<path transform="matrix(.24,0,0,.24,0,0)" d="M412.14225 598.0854H1151.5801V1562.5H412.14225Z" fill-rule="evenodd"/>
</clipPath>
</defs>
<g clip-path="url(#clip_0)">
<path transform="matrix(.75,0,0,.75,0,0)" d="M0 0H500V510H0Z" fill="transparent"/>
</g>
<g clip-path="url(#clip_1)">
<path transform="matrix(.75,0,0,.75,0,0)" d="M0 0H500V500H0Z" fill="transparent"/>
</g>
<g clip-path="url(#clip_2)">
<path transform="matrix(.75,0,0,.75,0,0)" d="M0 0H500V500H0Z" fill="transparent"/>
</g>
<g clip-path="url(#clip_3)">
<path transform="matrix(.4722134,0,0,.4722134,-11.436207,.000000000000025603353)" d="M718.5 297.6C718.5 302.47047 718.3805 307.33796 718.1415 312.20256 717.90249 317.06715 717.5443 321.9229 717.06698 326.7699 716.58956 331.6169 715.9935 336.44929 715.27896 341.267 714.5642 346.08473 713.73178 350.882 712.7816 355.65885 711.8314 360.4357 710.76467 365.18638 709.58126 369.9109 708.39779 374.63539 707.0991 379.32798 705.68539 383.9887 704.2715 388.64945 702.7442 393.27265 701.1034 397.85838 699.4626 402.44413 697.71029 406.98686 695.84646 411.48658 693.9826 415.9863 692.00949 420.43757 689.9271 424.8404 687.8447 429.2432 685.6556 433.59226 683.3597 437.88764 681.0638 442.18299 678.6639 446.4194 676.16 450.59693 673.65609 454.77445 671.05117 458.88804 668.3453 462.93766 665.6394 466.9873 662.83578 470.9681 659.93447 474.8801 657.03317 478.79209 654.03768 482.63053 650.9479 486.39546 647.8581 490.16035 644.6778 493.84718 641.40707 497.45597 638.1362 501.0647 634.7789 504.59104 631.33499 508.03498 627.89108 511.4789 624.3647 514.83627 620.7559 518.10708 617.14718 521.37789 613.4603 524.5581 609.69546 527.6479 605.9305 530.7376 602.092 533.73318 598.18008 536.63449 594.268 539.53579 590.28726 542.3394 586.2377 545.0453 582.18807 547.75119 578.07449 550.356 573.8969 552.8599 569.71939 555.36386 565.483 557.76376 561.1876 560.0597 556.8923 562.3556 552.54318 564.54476 548.1403 566.62716 543.7374 568.70956 539.2862 570.6826 534.7865 572.54647 530.28677 574.4103 525.744 576.1626 521.1583 577.8034 516.5726 579.4442 511.94935 580.97158 507.2887 582.3854 502.62797 583.79916 497.93534 585.0978 493.21086 586.2812 488.48637 587.4646 483.7357 588.5314 478.95884 589.48159 474.18196 590.43179 469.38468 591.26419 464.56697 591.9788 459.74925 592.6935 454.91688 593.28958 450.0699 593.76699 445.22288 594.2443 440.3671 594.60256 435.50254 594.8415 430.63795 595.0805 425.77046 595.2 420.9 595.2 416.02955 595.2 411.16203 595.0805 406.29747 594.84158 401.43287 594.6026 396.57707 594.2444 391.73008 593.767 386.88307 593.2896 382.0507 592.69357 377.23295 591.9788 372.41523 591.26419 367.61793 590.43179 362.84107 589.48159 358.06419 588.5314 353.3135 587.4646 348.58903 586.2812 343.86454 585.0978 339.17195 583.79916 334.51124 582.3854 329.8505 580.97158 325.22727 579.4442 320.64155 577.8034 316.0558 576.1626 311.51307 574.4103 307.01335 572.54647 302.5136 570.6826 298.06236 568.70956 293.65956 566.62716 289.2567 564.54476 284.90763 562.3556 280.61228 560.05978 276.31697 557.7638 272.0805 555.3639 267.90299 552.8599 263.72547 550.356 259.61189 547.75119 255.56224 545.0453 251.51262 542.3394 247.53182 539.53579 243.61983 536.63449 239.70786 533.73318 235.86943 530.7376 232.10453 527.6479 228.33962 524.5581 224.65277 521.3778 221.044 518.107 217.43526 514.83627 213.90892 511.47889 210.465 508.03495 207.02108 504.59104 203.66371 501.0647 200.39292 497.4559 197.12213 493.84715 193.94185 490.1603 190.85207 486.3954 187.7623 482.63047 184.76674 478.79203 181.86542 474.88008 178.9641 470.9681 176.16049 466.9873 173.45462 462.93766 170.74875 458.88804 168.14386 454.77445 165.63994 450.5969 163.13602 446.4194 160.73612 442.18299 158.4402 437.8876 156.14429 433.59226 153.95514 429.24317 151.87276 424.84034 149.79038 420.4375 147.81726 415.98625 145.95342 411.4865 144.08957 406.9868 142.33725 402.44407 140.69646 397.85835 139.05567 393.2726 137.52835 388.64939 136.11454 383.98866 134.70073 379.3279 133.4021 374.6353 132.21866 369.91084 131.03524 365.18635 129.96845 360.43568 129.01827 355.6588 128.06809 350.88197 127.23569 346.0847 126.52105 341.26698 125.80641 336.44926 125.210399 331.61689 124.73302 326.7699 124.25563 321.9229 123.897449 317.06715 123.658458 312.20256 123.41947 307.33796 123.29998 302.47047 123.29999 297.6 123.29998 292.72956 123.41947 287.86207 123.658458 282.99748 123.897449 278.13288 124.25563 273.2771 124.73302 268.4301 125.210399 263.5831 125.80641 258.75074 126.52105 253.93299 127.23569 249.11525 128.06809 244.31795 129.01827 239.54109 129.96845 234.76424 131.03525 230.01357 132.21868 225.28908 133.4021 220.56459 134.70073 215.87198 136.11455 211.21126 137.52835 206.55054 139.05567 201.9273 140.69646 197.34157 142.33725 192.75583 144.08957 188.2131 145.95342 183.7134 147.81726 179.21369 149.79039 174.76242 151.87277 170.35959 153.95516 165.95676 156.1443 161.60767 158.44022 157.31232 160.73613 153.01699 163.13603 148.78055 165.63996 144.60301 168.14386 140.42549 170.74875 136.31192 173.45462 132.2623 176.16049 128.21266 178.9641 124.231868 181.86542 120.319889 184.76674 116.407909 187.7623 112.569469 190.85207 108.804569 193.94185 105.03966 197.12213 101.35282 200.39293 97.74406 203.66373 94.135288 207.02108 90.60894 210.465 87.165019 213.90892 83.721088 217.43526 80.36372 221.044 77.09293 224.65277 73.82214 228.33962 70.64186 232.10453 67.552089 235.86943 64.4623 239.70786 61.466756 243.61983 58.56543 247.53182 55.664113 251.51262 52.86051 255.56226 50.154638 259.61189 47.44876 263.72547 44.84387 267.90299 42.33996 272.0805 39.83605 276.31697 37.43614 280.6123 35.14023 284.90766 32.844316 289.25675 30.655167 293.65956 28.572783 298.06236 26.490399 302.51365 24.517289 307.01338 22.653449 311.5131 20.789608 316.05583 19.037287 320.64155 17.396485 325.22727 15.755681 329.8505 14.228371 334.51124 12.814554 339.17195 11.400739 343.86454 10.102119 348.58903 8.918697 353.3135 7.7352759 358.06419 6.6684768 362.84107 5.7183 367.61793 4.768123 372.41523 3.9357134 377.23295 3.2210704 382.0507 2.5064274 386.88307 1.9104124 391.73008 1.4330253 396.57707 .955638 401.43287 .59745368 406.29747 .3584722 411.16203 .11949073 416.02955 0 420.9 0 425.77046 0 430.63795 .11949073 435.5025 .3584722 440.3671 .59745368 445.22288 .955638 450.0699 1.4330253 454.91688 1.9104124 459.74925 2.5064274 464.56697 3.2210704 469.38468 3.9357134 474.18196 4.768123 478.95884 5.7183 483.7357 6.6684768 488.48637 7.7352759 493.21086 8.918697 497.93534 10.102119 502.62797 11.400739 507.28874 12.814554 511.9494 14.228371 516.5726 15.755681 521.1583 17.396485 525.7441 19.037287 530.28689 20.789608 534.78659 22.653449 539.28628 24.517289 543.73757 26.490399 548.14047 28.572783 552.5433 30.655167 556.8924 32.844316 561.18777 35.14023 565.48306 37.43614 569.7194 39.83605 573.897 42.33996 578.0745 44.84387 582.18807 47.44876 586.2377 50.154638 590.28726 52.86051 594.268 55.664113 598.18008 58.56543 602.092 61.466756 605.9305 64.4623 609.69546 67.552089 613.4603 70.64186 617.14718 73.82214 620.7559 77.09293 624.3647 80.36372 627.89108 83.721088 631.33499 87.165019 634.7789 90.60894 638.1362 94.135288 641.40707 97.74406 644.6778 101.35281 647.8581 105.03965 650.9479 108.80456 654.03768 112.56946 657.0332 116.4079 659.9345 120.319889 662.8358 124.23186 665.6394 128.21266 668.3453 132.26229 671.05117 136.31192 673.65609 140.42549 676.16 144.603 678.6639 148.78054 681.0638 153.01697 683.3597 157.31232 685.6556 161.60765 687.8447 165.95674 689.9271 170.35959 692.00949 174.7624 693.9826 179.21367 695.84646 183.71338 697.71029 188.21309 699.4626 192.75582 701.1034 197.34156 702.7442 201.92729 704.27157 206.55052 705.6854 211.21126 707.0992 215.87198 708.3978 220.56459 709.5813 225.28908 710.7647 230.01357 711.8315 234.76424 712.7817 239.54109 713.7318 244.31795 714.5643 249.11525 715.27896 253.93299 715.9935 258.75074 716.58956 263.5831 717.067 268.4301 717.5444 273.2771 717.9025 278.13288 718.1415 282.99748 718.3805 287.86207 718.5 292.72956 718.5 297.6Z" fill="#0d6efd"/>
</g>
<g clip-path="url(#clip_4)">
<path transform="matrix(.860945,0,0,.8621016,22.69068,44.343576)" d="M144.2837 80.2936C136.77301 79.3205 129.9331 74.5436 126.433109 67.8273L133.9429 63.9142C136.1499 68.1491 140.6358 71.2819 145.3716 71.8952L144.2837 80.2936Z" fill="#120078"/>
<path transform="matrix(.860945,0,0,.8621016,22.69068,44.343576)" d="M180.0908 139.9626C179.2402 139.9626 178.3891 139.926 177.54001 139.8522L178.14641 132.8786C183.0805 133.3078 188.10881 132.0949 192.3061 129.464L196.02391 135.3947C191.2676 138.3761 185.6924 139.9626 180.0908 139.9626Z" fill="#120078"/>
<path transform="matrix(.860945,0,0,.8621016,22.69068,44.343576)" d="M322.1763 88.7995C321.7818 88.7995 321.3833 88.756 320.9868 88.6677L322.5063 81.8347C321.8588 81.6911 321.309 82.0129 321.20359 82.1672 321.22309 82.1389 321.24659 82.070499 321.24848 82.0368 321.1508 81.486 320.59028 80.65939 319.99647 79.78439 319.68888 79.331798 319.38316 78.87859 319.10289 78.416698 317.26789 75.397197 316.38899 71.79369 316.6273 68.269199 316.91539 64.0265 319.4632 59.170595 324.3783 58.532899L325.2787 65.4743C324.60389 65.562198 323.72889 67.0085 323.6117 68.74239 323.4701 70.83959 323.99259 72.9846 325.0853 74.78199 325.305 75.14429 325.5472 75.49879 325.7884 75.854297 326.68589 77.176097 327.8021 78.82109 328.15849 80.94759 328.53248 83.182498 327.71119 85.6356 326.06568 87.19709 324.9624 88.2433 323.5903 88.7995 322.1763 88.7995Z" fill="#120078"/>
<path transform="matrix(.860945,0,0,.8621016,22.69068,44.343576)" d="M74.1699 196.027 67.199199 195.39029C67.90479 187.6608 64.0517 179.55728 57.611299 175.22528L61.518499 169.41669C70.1499 175.2223 75.1162 185.6676 74.1699 196.027Z" fill="#120078"/>
<path transform="matrix(.860945,0,0,.8621016,22.69068,44.343576)" d="M181.0815 266.778C177.9707 266.16673 175.1142 264.1842 173.24559 261.3385 171.37699 258.4928 170.69239 255.0846 171.3682 251.98601 171.648 250.70182 172.10399 249.57 172.545 248.47531 172.8638 247.68532 173.1646 246.93822 173.3595 246.2194 173.6935 244.988 173.59239 243.82 173.1144 243.37761 172.80339 243.08951 172.1378 242.86101 171.4328 242.6208 170.883 242.4323 170.2595 242.2194 169.6354 241.9226 166.48651 240.42652 164.34491 237.20871 164.17981 233.72441 164.01432 230.24102 165.8424 226.83481 168.837 225.0467L171.65631 229.76941C170.42002 230.50672 169.6045 232.02622 169.67292 233.46372 169.74132 234.90222 170.69632 236.3377 171.99611 236.95592 172.3374 237.11801 172.7622 237.26352 173.2124 237.41683 174.314 237.79383 175.6851 238.26253 176.8501 239.34163 178.8887 241.22834 179.5679 244.33773 178.66699 247.65903 178.38719 248.69223 178.0103 249.62683 177.646 250.53113 177.2739 251.45493 176.9224 252.32703 176.7412 253.15813 176.37889 254.82123 176.78029 256.70204 177.84279 258.32023 178.90479 259.9374 180.47219 261.05363 182.14209 261.3817L181.0815 266.778Z" fill="#120078"/>
<path transform="matrix(.860945,0,0,.8621016,22.69068,44.343576)" d="M49.5884 14.3747 45.9009 8.4244999C48.573804 6.7682998 50.482904 3.8018995 50.8843 .68329957L57.8267 1.5758995C57.1538 6.8101999 54.0742 11.5949 49.5884 14.3747Z" fill="#120078"/>
<path transform="matrix(.860945,0,0,.8621016,22.69068,44.343576)" d="M246.1636 31.8449C246.1382 30.2834 245.3365 28.7087 243.96541 27.524102 242.5933 26.3395 240.92151 25.7751 239.36872 25.9787 238.91951 26.0373 238.45272 26.1345 237.98392 26.2292 235.87941 26.655 232.99562 27.2404 230.62352 25.210202 228.27492 23.2024 228.41553 20.352803 228.51712 18.271702 228.56792 17.234602 228.62062 16.162802 228.36083 15.610601L233.46242 13.205301C234.32372 15.0320019 234.22801 16.9817 234.15192 18.548102 234.11483 19.304902 234.04552 20.714102 234.28961 20.922602 234.56891 21.161902 236.06302 20.862103 236.86582 20.699902 237.46541 20.578803 238.06111 20.460602 238.63732 20.385003 241.77791 19.975802 245.06502 21.020703 247.65192 23.254103 250.23882 25.488003 251.75252 28.585602 251.80422 31.753102L246.1636 31.8449Z" fill="#120078"/>
<path transform="matrix(.860945,0,0,.8621016,22.69068,44.343576)" d="M304.1548 271.089C299.65058 271.089 299.6431 278.089 304.1548 278.089 308.659 278.089 308.6664 271.089 304.1548 271.089Z" fill="#fecd1a"/>
<path transform="matrix(.860945,0,0,.8621016,22.69068,44.343576)" d="M112.6655 246.3762C104.9441 246.3762 104.9313 258.37623 112.6655 258.37623 120.3869 258.3762 120.3997 246.3762 112.6655 246.3762Z" fill="#fecd1a"/>
<path transform="matrix(.860945,0,0,.8621016,22.69068,44.343576)" d="M143.3038 164.4187C135.5824 164.4187 135.5695 176.4187 143.3038 176.4187 151.0252 176.4187 151.038 164.4187 143.3038 164.4187Z" fill="#fecd1a"/>
<path transform="matrix(.860945,0,0,.8621016,22.69068,44.343576)" d="M51.3889 103.94C41.7371 103.94 41.7211 118.94 51.3889 118.94 61.0406 118.94 61.0566 103.94 51.3889 103.94Z" fill="#fecd1a"/>
<path transform="matrix(.860945,0,0,.8621016,22.69068,44.343576)" d="M213.7719 59.9826C206.6939 59.9826 206.68219 70.982608 213.7719 70.982608 220.8499 70.9826 220.8616 59.9826 213.7719 59.9826Z" fill="#fecd1a"/>
<path transform="matrix(.860945,0,0,.8621016,22.69068,44.343576)" d="M357.7719 131.4507C351.9808 131.4507 351.97123 140.4507 357.7719 140.4507 363.5629 140.4507 363.5725 131.4507 357.7719 131.4507Z" fill="#fecd1a"/>
<path transform="matrix(.860945,0,0,.8621016,22.69068,44.343576)" d="M260.4952 179.706C254.7041 179.706 254.6945 188.706 260.4952 188.706 266.2863 188.706 266.2959 179.706 260.4952 179.706Z" fill="#fecd1a"/>
<path transform="matrix(.860945,0,0,.8621016,22.69068,44.343576)" d="M118.933307 5.5418C118.624507 4.4407 118.06731 3.4846 117.2617 2.6736L116.495807 1.9077001C115.907009 1.2738001 115.2097 .8259001 114.4039 .5637001 113.6293 .15670008 112.7945-.029899955 111.8996 .0039000512 111.0046-.029899948 110.1699 .15670006 109.395298 .5637001 108.58949 .82580009 107.8922 1.2738001 107.30339 1.9077001 106.96469 2.3462 106.62579 2.7847002 106.28699 3.2232 105.69899 4.2371 105.40319 5.3306 105.39959 6.5039L105.63179 8.2319C105.94059 9.333 106.49779 10.289101 107.30339 11.1001009 107.55879 11.3554 107.81409 11.610701 108.06939 11.866 108.65809 12.4999 109.35539 12.9478 110.16129 13.21 110.93599 13.617 111.77069 13.8036 112.665599 13.7698 113.56049 13.8036 114.395298 13.617001 115.1699 13.21 115.9757 12.9479 116.673 12.4999 117.2618 11.866 117.6006 11.4275 117.9394 10.989 118.278209 10.5505 118.8662 9.5366 119.162 8.4431 119.1657 7.2698L118.933307 5.5418Z" fill="#fecd1a"/>
<path transform="matrix(.860945,0,0,.8621016,22.69068,44.343576)" d="M144.0697 12.4932C136.9918 12.4932 136.98 23.4932 144.0697 23.4932 151.1477 23.4932 151.1594 12.4932 144.0697 12.4932Z" fill="#fecd1a"/>
<path transform="matrix(.860945,0,0,.8621016,22.69068,44.343576)" d="M249.0854 136.1979 248.88231 128.2008C251.46921 128.1349 253.49462 124.24821 254.28072 120.66521 254.44962 119.895709 254.60391 119.109508 254.75821 118.318508 255.6811 113.6115 256.726 108.276508 260.98963 104.587108L266.22404 110.6369C264.04634 112.5212 263.34803 116.0842 262.60975 119.8566 262.44276 120.707698 262.27674 121.5534 262.09516 122.381 260.6548 128.9372 256.4819 136.0094 249.0854 136.1979Z" fill="#fd3a69"/>
<path transform="matrix(.860945,0,0,.8621016,22.69068,44.343576)" d="M314.7915 29.758C306.9849 29.758 299.3774 25.9118 294.8335 19.486L301.3648 14.8668999C304.7349 19.632 310.89613 22.3606 316.6832 21.6428L317.6598 29.583199C316.7046 29.7004 315.7456 29.758 314.7915 29.758Z" fill="#fd3a69"/>
<path transform="matrix(.860945,0,0,.8621016,22.69068,44.343576)" d="M313.8032 194.8952 306.4419 191.7643C308.26609 187.4733 311.08149 183.5768 314.58149 180.4938L319.8686 186.49771C317.2603 188.7946 315.1636 191.6989 313.8032 194.8952Z" fill="#fd3a69"/>
<path transform="matrix(.860945,0,0,.8621016,22.69068,44.343576)" d="M257.0386 252.57C252.7681 250.235 248.3697 247.9929 243.96541 245.90502L249.96341 233.25461C254.60892 235.45671 259.2495 237.82302 263.7554 240.2868L257.0386 252.57Z" fill="#fd3a69"/>
<path transform="matrix(.860945,0,0,.8621016,22.69068,44.343576)" d="M9.8853 158.3151C6.9003999 155.33899 3.5742999 152.6969 0 150.463L4.7695 142.83119C8.9174 145.42299 12.776299 148.48839 16.2397 151.94199L9.8853 158.3151Z" fill="#fd3a69"/>
<path transform="matrix(.860945,0,0,.8621016,22.69068,44.343576)" d="M94.9468 132.6545 87.7798 127.2111C91.2466 122.646198 91.4668 115.605098 88.291507 110.8332L95.784709 105.8478C101.0669 113.7868 100.7144 125.0607 94.9468 132.6545Z" fill="#fd3a69"/>
<path transform="matrix(.860945,0,0,.8621016,22.69068,44.343576)" d="M52.0747 309.2497 47.9663 304.8767C49.6216 303.321 49.774904 300.50663 49.952604 297.2478 50.159105 293.4539 50.393 289.155 53.376405 285.908 55.507707 283.58869 58.384706 282.5965 60.922807 281.7215 63.236806 280.9227 65.235309 280.2332 66.15771 278.8211 67.14701 277.30653 66.95071 274.85823 66.74311 272.26643 66.45011 268.60923 66.08591 264.0584 69.54241 260.89533 73.01651 257.7166 78.03751 258.4041 80.733318 258.77134L79.920818 264.71665C77.535518 264.39045 74.88322 264.14247 73.59271 265.32115 72.38761 266.42463 72.460918 268.49986 72.724018 271.78794 72.98962 275.10826 73.29141 278.87095 71.181018 282.10246 69.13461 285.23527 65.81142 286.38175 62.879217 287.39344 60.832315 288.09953 58.898717 288.76643 57.794218 289.96864 56.267316 291.62974 56.109617 294.51744 55.943117 297.57414 55.7271 301.5456 55.4819 306.0475 52.0747 309.2497Z" fill="#fd3a69"/>
<path transform="matrix(.860945,0,0,.8621016,22.69068,44.343576)" d="M293.0619 147.7638C291.3425 151.34569 290.0401 155.1276 289.1894 159.0087 293.96549 158.62889 298.6959 157.67749 303.2475 156.1814 299.7187 153.8242 296.1926 151.46269 292.6695 149.09709" fill="#9d0191"/>
<path transform="matrix(.860945,0,0,.8621016,22.69068,44.343576)" d="M112.8375 166.3031C108.958 169.1544 105.0785 172.0057 101.199108 174.857 106.066608 176.5223 110.672107 178.9509 114.795909 182.02669 114.16881 176.17578 113.28331 170.35269 112.14271 164.5799" fill="#9d0191"/>
<path transform="matrix(.860945,0,0,.8621016,22.69068,44.343576)" d="M279.9846 49.823 269.091 56.972 282.708 62.0034 279.9846 49.823Z" fill="#9d0191"/>
<path transform="matrix(.860945,0,0,.8621016,22.69068,44.343576)" d="M70.7827 25.7548 68.2399 43.3549 80.4952 40.2911 70.7827 25.7548Z" fill="#9d0191"/>
<path transform="matrix(.860945,0,0,.8621016,22.69068,44.343576)" d="M343.9846 229.3975 341.942 243.0041 353.425 236.2008 343.9846 229.3975Z" fill="#9d0191"/>
<path transform="matrix(.860945,0,0,.8621016,22.69068,44.343576)" d="M372.0697 81.5162 382.7931 91.5252 372.0697 96.6315V81.5162Z" fill="#9d0191"/>
<path transform="matrix(.860945,0,0,.8621016,22.69068,44.343576)" d="M210.5591 184.206 194.165 191.0996 208.459 199.2698 210.5591 184.206Z" fill="#9d0191"/>
</g>
<g clip-path="url(#clip_5)">
<path transform="matrix(.120501678,0,0,-.12033023,-68.600139,515.12026)" stroke-width="120" stroke-linecap="butt" stroke-miterlimit="10" stroke-linejoin="miter" fill="none" stroke="#fabb4c" d="M1710.2 2958.8H1452.5C1452.5 2958.8 1416.8 2432.2003 1836.5 2487.4002"/>
</g>
<g clip-path="url(#clip_6)">
<path transform="matrix(.12050169,0,0,-.12033023,-68.600139,515.12026)" stroke-width="120" stroke-linecap="butt" stroke-miterlimit="10" stroke-linejoin="miter" fill="none" stroke="#fabb4c" d="M2541.8 2958.8H2799.5C2799.5 2958.8 2835.2 2432.2003 2415.5 2487.4002"/>
</g>
<g clip-path="url(#clip_7)">
<path transform="matrix(1.2050169,0,0,1.2033023,-68.600139,3.4761036)" d="M166.94 116.39V151.15C168.53 212.10999 207.35 211.7 207.35 211.7V249.29999H217.85V211.69998C217.85 211.69998 256.67 212.10999 258.27003 151.14998V116.389987H166.94002" fill="#fabb4c"/>
<path transform="matrix(1.2050169,0,0,1.2033023,-68.600139,3.4761036)" d="M217.85 249.3H207.35L193.65001 261.57H231.55002L217.85002 249.3" fill="#fabb4c"/>
<path transform="matrix(1.2050169,0,0,1.2033023,-68.600139,3.4761036)" d="M257.62 300.22H167.57999V261.57H257.62V300.22" fill="#3d4176"/>
<path transform="matrix(1.2050169,0,0,1.2033023,-68.600139,3.4761036)" d="M266.86 308.81H157.76999V300.22H266.86V308.81" fill="#2c2d53"/>
<path transform="matrix(1.2050169,0,0,1.2033023,-68.600139,3.4761036)" d="M236.55 291.33H188.65V270.46998H236.54999V291.32997" fill="#fabb4c"/>
<path transform="matrix(1.2050169,0,0,1.2033023,-68.600139,3.4761036)" d="M212.6 131.35 219.66 145.66 235.47 147.96 224.03 159.11 226.73 174.84 212.59999 167.41 198.46999 174.84 201.16999 159.11 189.72998 147.96 205.53998 145.66 212.59998 131.35" fill="#fff766"/>
</g>
</svg>
